<svg width="64" height="64" viewBox="0 0 64 64" fill="none" xmlns="http://www.w3.org/2000/svg">
<path d="M32 0L13.9637 2.10428L0 22.7884L32 63.9068L64 22.7881L50.0365 2.10428L32 0Z" fill="#FDB300"/>
<path d="M0 22.7885L32 63.9068L12.9615 22.7885H0Z" fill="#EB6C00"/>
<path d="M51.0382 22.7885L32 63.9068L64 22.7885H51.0382Z" fill="#EB6C00"/>
<path d="M12.9617 22.7885L32.0002 63.9068L51.0387 22.7885H12.9617Z" fill="#FDAD00"/>
<path d="M13.9636 2.10428L12.9611 22.7884L31.9998 0L13.9636 2.10428Z" fill="#FDD231"/>
<path d="M51.0382 22.7884L50.0363 2.10428L32 0L51.0382 22.7884Z" fill="#FDD231"/>
<path d="M51.0383 22.7884H63.9998L50.0363 2.10425L51.0383 22.7884Z" fill="#FDAD00"/>
<path d="M0 22.7884H12.9615L13.9637 2.10425L0 22.7884Z" fill="#FDAD00"/>
<path d="M32.0002 0L12.9617 22.7881H51.0387L32.0002 0Z" fill="#FEEEB7"/>
</svg>
