<svg width="64" height="64" viewBox="0 0 64 64" fill="none" xmlns="http://www.w3.org/2000/svg">
<g opacity="0.78">
<path fill-rule="evenodd" clip-rule="evenodd" d="M13.2859 40.4588C13.2866 41.3424 13.1158 42.2175 12.7834 43.0339C12.4509 43.8504 11.9634 44.5922 11.3485 45.2168C10.7337 45.8415 10.0037 46.3368 9.20033 46.6744C8.39695 47.012 7.53596 47.1852 6.66664 47.1841C5.79777 47.1845 4.93734 47.0107 4.13457 46.6729C3.3318 46.335 2.60243 45.8396 1.98816 45.2149C1.37389 44.5903 0.886779 43.8488 0.554673 43.0327C0.222568 42.2166 0.0519836 41.342 0.0526754 40.4588C0.0519832 39.5754 0.222654 38.7006 0.554924 37.8843C0.887194 37.0681 1.37454 36.3264 1.98909 35.7017C2.60363 35.0771 3.33332 34.5818 4.13639 34.244C4.93947 33.9063 5.80018 33.7328 6.66927 33.7335H13.2885V40.4588H13.2859ZM16.5942 40.4588C16.5935 39.5754 16.7642 38.7006 17.0964 37.8843C17.4287 37.0681 17.916 36.3264 18.5306 35.7017C19.1451 35.0771 19.8748 34.5818 20.6779 34.244C21.481 33.9063 22.3417 33.7328 23.2108 33.7335C24.0799 33.7328 24.9406 33.9063 25.7437 34.244C26.5467 34.5818 27.2764 35.0771 27.891 35.7017C28.5055 36.3264 28.9929 37.0681 29.3251 37.8843C29.6574 38.7006 29.8281 39.5754 29.8274 40.4588V57.2747C29.8281 58.1581 29.6574 59.033 29.3251 59.8492C28.9929 60.6655 28.5055 61.4072 27.891 62.0318C27.2764 62.6565 26.5467 63.1518 25.7437 63.4895C24.9406 63.8273 24.0799 64.0007 23.2108 64C22.3417 64.0007 21.481 63.8273 20.6779 63.4895C19.8748 63.1518 19.1451 62.6565 18.5306 62.0318C17.916 61.4072 17.4287 60.6655 17.0964 59.8492C16.7642 59.033 16.5935 58.1581 16.5942 57.2747V40.4588Z" fill="#E01E5A"/>
<path fill-rule="evenodd" clip-rule="evenodd" d="M23.2107 13.4533C22.3414 13.454 21.4805 13.2804 20.6772 12.9425C19.874 12.6046 19.1442 12.109 18.5296 11.4841C17.915 10.8592 17.4277 10.1172 17.0956 9.30062C16.7635 8.48404 16.5931 7.6089 16.5941 6.7253C16.5934 5.84192 16.7641 4.96708 17.0964 4.15081C17.4287 3.33454 17.916 2.59287 18.5306 1.96823C19.1451 1.34359 19.8748 0.848231 20.6779 0.510502C21.4809 0.172773 22.3416 -0.000701474 23.2107 2.13178e-06C24.0798 -0.000701474 24.9405 0.172773 25.7436 0.510502C26.5467 0.848231 27.2764 1.34359 27.8909 1.96823C28.5055 2.59287 28.9928 3.33454 29.3251 4.15081C29.6574 4.96708 29.828 5.84192 29.8273 6.7253V13.456H23.2134L23.2107 13.4533ZM23.2107 16.8668C24.0798 16.866 24.9405 17.0395 25.7436 17.3773C26.5467 17.715 27.2764 18.2103 27.8909 18.835C28.5055 19.4596 28.9928 20.2013 29.3251 21.0176C29.6574 21.8338 29.828 22.7087 29.8273 23.5921C29.828 24.4754 29.6574 25.3503 29.3251 26.1665C28.9928 26.9828 28.5055 27.7245 27.8909 28.3491C27.2764 28.9738 26.5467 29.4691 25.7436 29.8069C24.9405 30.1446 24.0798 30.3181 23.2107 30.3174H6.6166C5.74772 30.3181 4.88723 30.1447 4.08433 29.8071C3.28142 29.4695 2.55186 28.9744 1.93735 28.3501C1.32284 27.7257 0.835432 26.9844 0.503007 26.1684C0.170582 25.3524 -0.000344069 24.4779 2.09732e-06 23.5947C-0.000690136 22.7114 0.169981 21.8365 0.502251 21.0202C0.834521 20.204 1.32187 19.4623 1.93642 18.8377C2.55096 18.213 3.28064 17.7177 4.08372 17.3799C4.88679 17.0422 5.7475 16.8687 6.6166 16.8694H23.2134L23.2107 16.8668Z" fill="#36C5F0"/>
<path fill-rule="evenodd" clip-rule="evenodd" d="M49.7296 23.5921C49.7289 22.7085 49.8996 21.8334 50.2321 21.0169C50.5645 20.2005 51.0521 19.4587 51.6669 18.834C52.2818 18.2094 53.0117 17.7141 53.8151 17.3765C54.6185 17.0389 55.4795 16.8657 56.3488 16.8668C57.2179 16.8661 58.0786 17.0395 58.8817 17.3773C59.6848 17.715 60.4145 18.2103 61.029 18.835C61.6435 19.4596 62.1309 20.2013 62.4632 21.0176C62.7954 21.8338 62.9661 22.7087 62.9654 23.5921C62.9661 24.4754 62.7954 25.3503 62.4632 26.1665C62.1309 26.9828 61.6435 27.7245 61.029 28.3491C60.4145 28.9738 59.6848 29.4691 58.8817 29.8069C58.0786 30.1446 57.2179 30.3181 56.3488 30.3174H49.7296V23.5947V23.5921ZM46.4213 23.5921C46.422 24.4754 46.2513 25.3503 45.919 26.1665C45.5868 26.9828 45.0994 27.7245 44.4849 28.3491C43.8703 28.9738 43.1406 29.4691 42.3376 29.8069C41.5345 30.1446 40.6738 30.3181 39.8047 30.3174C38.9354 30.3184 38.0744 30.1452 37.271 29.8076C36.4676 29.4701 35.7376 28.9748 35.1228 28.3501C34.508 27.7254 34.0204 26.9836 33.688 26.1672C33.3555 25.3507 33.1848 24.4757 33.1855 23.5921V6.7253C33.1848 5.8417 33.3555 4.96664 33.688 4.15019C34.0204 3.33375 34.508 2.59196 35.1228 1.96728C35.7376 1.34261 36.4676 0.847307 37.271 0.509735C38.0744 0.172164 38.9354 -0.00105074 39.8047 4.79523e-06C40.6738 -0.000698811 41.5345 0.172776 42.3376 0.510505C43.1406 0.848233 43.8703 1.34359 44.4849 1.96823C45.0994 2.59287 45.5868 3.33454 45.919 4.15081C46.2513 4.96708 46.422 5.84193 46.4213 6.7253V23.5947V23.5921Z" fill="#2EB67D"/>
<path fill-rule="evenodd" clip-rule="evenodd" d="M39.8047 50.5468C40.6738 50.5461 41.5345 50.7195 42.3375 51.0573C43.1406 51.395 43.8703 51.8904 44.4848 52.515C45.0994 53.1396 45.5867 53.8813 45.919 54.6976C46.2513 55.5138 46.4219 56.3887 46.4213 57.2721C46.4223 58.1557 46.2519 59.0308 45.9198 59.8474C45.5876 60.664 45.1004 61.4059 44.4858 62.0309C43.8712 62.6558 43.1414 63.1514 42.3381 63.4893C41.5349 63.8272 40.674 64.0007 39.8047 64C38.9353 64.0007 38.0744 63.8272 37.2712 63.4893C36.4679 63.1514 35.7381 62.6558 35.1235 62.0309C34.509 61.4059 34.0217 60.664 33.6895 59.8474C33.3574 59.0308 33.187 58.1557 33.1881 57.2721V50.5468H39.8047V50.5468ZM39.8047 47.1841C38.9356 47.1848 38.0748 47.0113 37.2718 46.6736C36.4687 46.3359 35.739 45.8405 35.1245 45.2159C34.5099 44.5913 34.0226 43.8496 33.6903 43.0333C33.358 42.217 33.1874 41.3422 33.1881 40.4588C33.1874 39.5754 33.358 38.7006 33.6903 37.8843C34.0226 37.0681 34.5099 36.3264 35.1245 35.7017C35.739 35.0771 36.4687 34.5818 37.2718 34.244C38.0748 33.9063 38.9356 33.7328 39.8047 33.7335H56.3988C57.2679 33.7328 58.1286 33.9063 58.9317 34.244C59.7347 34.5818 60.4644 35.0771 61.079 35.7017C61.6935 36.3264 62.1809 37.0681 62.5131 37.8843C62.8454 38.7006 63.0161 39.5754 63.0154 40.4588C63.0161 41.3422 62.8454 42.217 62.5131 43.0333C62.1809 43.8496 61.6935 44.5913 61.079 45.2159C60.4644 45.8405 59.7347 46.3359 58.9317 46.6736C58.1286 47.0113 57.2679 47.1848 56.3988 47.1841H39.8047V47.1841Z" fill="#ECB22E"/>
</g>
</svg>
